<?xml version="1.0" standalone="no"?>
<!DOCTYPE svg PUBLIC "-//W3C//DTD SVG 20010904//EN"
 "http://www.w3.org/TR/2001/REC-SVG-20010904/DTD/svg10.dtd">
<svg version="1.0" xmlns="http://www.w3.org/2000/svg"
 width="182.000000pt" height="85.000000pt" viewBox="0 0 182.000000 85.000000"
 preserveAspectRatio="xMidYMid meet">

<g transform="translate(0.000000,85.000000) scale(0.100000,-0.100000)"
fill="#000000" stroke="none">
<path d="M170 430 l0 -250 85 0 85 0 0 85 0 85 65 0 65 0 0 -84 0 -84 75 -7
c41 -4 81 -5 90 -1 13 5 15 38 13 253 l-3 248 -85 0 -85 0 -3 -82 -3 -83 -64
0 -65 0 0 85 0 85 -85 0 -85 0 0 -250z"/>
<path d="M680 430 l0 -250 80 0 80 0 0 123 0 122 80 -122 81 -123 79 0 80 0 0
74 0 74 -37 12 c-63 20 -204 73 -201 76 2 1 50 -11 107 -27 58 -16 110 -29
118 -29 10 0 13 34 13 160 l0 160 -75 0 -75 0 0 -127 -1 -128 -82 127 -82 128
-82 0 -83 0 0 -250z"/>
<path d="M1200 517 c0 -129 3 -166 14 -170 7 -3 64 -11 127 -17 220 -24 309
24 309 167 0 72 -31 127 -88 155 -42 20 -65 23 -204 26 l-158 4 0 -165z m260
3 c16 -16 18 -25 10 -40 -8 -15 -21 -20 -55 -20 l-45 0 0 40 c0 39 1 40 35 40
22 0 43 -8 55 -20z"/>
<path d="M1656 664 c-20 -19 -20 -38 -2 -54 23 -19 61 -8 64 18 7 44 -32 67
-62 36z m51 -36 c-3 -7 -5 -2 -5 12 0 14 2 19 5 13 2 -7 2 -19 0 -25z m-31 -4
c8 3 14 1 14 -5 0 -16 -35 -6 -36 11 -1 10 0 11 3 2 3 -8 11 -11 19 -8z"/>
<path d="M1200 253 l0 -73 95 0 95 0 0 58 0 58 -95 15 -95 14 0 -72z"/>
</g>
</svg>
